<?xml version="1.0" encoding="utf-8"?>
<!-- Generator: Adobe Illustrator 25.2.1, SVG Export Plug-In . SVG Version: 6.00 Build 0)  -->
<svg version="1.1" xmlns="http://www.w3.org/2000/svg" xmlns:xlink="http://www.w3.org/1999/xlink" x="0px" y="0px"
	 viewBox="0 0 883 802" style="enable-background:new 0 0 883 802;" xml:space="preserve">
<style type="text/css">
	.st0{fill:#F2F2F2;}
	.st1{fill:#E4E4E4;}
	.st2{fill:#FFFFFF;}
	.st3{fill:#3F3D56;}
	.st4{fill:#E6E6E6;}
	.st5{fill:#CACACA;}
	.st6{fill:#9E616A;}
	.st7{fill:#6D4C3D;}
	.st8{fill:#ABC4AB;}
	.st9{fill:#2F2E41;}
	.st10{fill:#DCC9B6;}
	.st11{opacity:0.2;fill:#ABC4AB;enable-background:new    ;}
	.st12{opacity:0.17;enable-background:new    ;}
	.st13{fill:#CCCCCC;}
</style>
<g id="e281c6c1-c124-4cbc-b58b-d47b44bee57f">
	<path class="st0" d="M883,401c0.1,74.9-20.8,148.2-60.4,211.8c-1.4,2.2-2.8,4.4-4.2,6.6c-2.6,4-5.3,8-8.1,11.9c0,0,0,0,0,0
		c-1.7,2.4-3.3,4.7-5,7c-2.2,3-4.4,5.9-6.7,8.8c-0.2,0.3-0.5,0.7-0.8,1c-3.9,5.1-8,10-12.2,14.8c-0.5,0.5-0.9,1-1.4,1.6
		c-0.7,0.8-1.4,1.7-2.2,2.5c-21.8,24.6-46.6,46.5-73.8,65.1c-3.6,2.5-7.3,4.9-11,7.3c-0.9,0.6-1.8,1.2-2.8,1.8
		c-0.3,0.2-0.6,0.4-0.8,0.5c-1,0.6-2,1.2-3,1.8c-2,1.2-4,2.4-6,3.6c-1,0.6-2,1.2-3,1.8c0,0,0,0-0.1,0l0,0c-2.5,1.5-5.1,2.9-7.6,4.3
		c-4.6,2.5-9.2,4.9-13.9,7.2c-1.2,0.6-2.3,1.2-3.5,1.7c-3.9,1.9-7.8,3.7-11.8,5.5c-33.3,14.8-68.6,25-104.7,30.2
		c-5.8,0.8-11.5,1.6-17.3,2.1c-2.2,0.2-4.4,0.4-6.7,0.6c-0.9,0.1-1.8,0.2-2.8,0.2c-10.3,0.8-20.8,1.2-31.3,1.2
		c-11.5,0-22.9-0.5-34.1-1.4c-2.4-0.2-4.8-0.4-7.2-0.7c-3.8-0.4-7.5-0.8-11.2-1.3c-1.9-0.2-3.8-0.5-5.6-0.8
		c-20.4-2.9-40.6-7.5-60.3-13.6c-11.2-3.4-22.1-7.4-32.9-11.7c-3.4-1.4-6.8-2.8-10.2-4.3c-3.2-1.4-6.3-2.8-9.4-4.3
		c-0.1,0-0.2-0.1-0.3-0.1c-0.7-0.3-1.4-0.7-2.1-1c-17.2-8.2-33.7-17.7-49.5-28.3c-5.1-3.4-10.1-6.9-15-10.5c-4-2.9-7.8-5.9-11.7-9
		c-19.1-15.2-36.8-32.1-52.9-50.5c-1.1-1.3-2.2-2.6-3.4-3.9c-0.9-1-1.7-2-2.5-3c-4.5-5.4-8.9-10.9-13-16.5c-0.6-0.8-1.1-1.5-1.7-2.3
		c-2.7-3.6-5.3-7.3-7.8-11c-1.9-2.8-3.8-5.6-5.6-8.5C51.3,473.9,61,284.4,169.7,149.5c2.4-3,4.9-5.9,7.4-8.9
		C250.6,54.5,359.9,0,482,0c142.7,0,268,74.6,339.1,186.9c3.7,5.8,7.2,11.7,10.6,17.8C865.5,264.6,883.1,332.2,883,401z"/>
	<path class="st1" d="M676.2,715.8c-5.4,14.9-10.7,29.8-16.1,44.6c-1.2,0.6-2.3,1.2-3.5,1.7c-3.9,1.9-7.8,3.7-11.8,5.5
		c-0.5-1.3-0.8-2.8-0.9-4.2c-0.2-6,2.5-11.6,4-17.4c0-0.2,0.1-0.3,0.1-0.5c2-8.6,1.1-17.7-2.7-25.7c-2.3-4.8-5.5-9.1-6.9-14.2
		c-3.1-11.3,5.1-24.3,16.7-26.4c11.5-2,23.8,7.4,24.7,19C680.3,704.2,678.3,710.1,676.2,715.8z"/>
	<path class="st1" d="M653.5,756.4c-1.9-3.5-3.8-6.9-5.6-10.4c-4.8-8.9-9.6-17.8-14.4-26.6c-1.3-2.4-2.6-4.7-4-7.1
		c-3.5-6.1-7.6-11.9-12.3-17.2c-1.1-1.2-2.2-2.3-3.4-3.4c-0.7-0.7-1.5-1.4-2.2-2c-4.3-3.7-10.2-8.7-16.3-6.7c-1.5,0.5-3,1.2-4.4,2
		c-1.6,0.9-3.2,1.9-4.8,2.8c-3,1.7-6.1,3.4-9.1,5.1c-1.4,0.8-2.7,1.5-4.1,2.3c-1.8,1-3.7,2-5.5,2.9c-0.9,0.5-1.9,1-2.8,1.5
		c-1.9,1-3.8,1.9-5.6,3c-3.6,2.2-6.7,5-9.2,8.4c-0.5,0.7-0.9,1.3-1.4,2c-0.6,0.9-1.1,1.8-1.5,2.8c-0.3,0.7-0.6,1.3-0.9,2
		c-2.5,6.3-2.8,13.3-1,19.8v0c0.1,0.5,0.2,0.9,0.4,1.3c0.2,0.7,0.5,1.5,0.8,2.2c2.1,5.1,5.7,8.9,9.5,12.7c0.4,0.4,0.8,0.8,1.2,1.2
		c5,4.9,10.1,9.8,15.2,14.7c6.1,5.8,12.2,11.7,18.4,17.4c18.6-5.2,36.8-11.8,54.5-19.6c4-1.8,7.9-3.6,11.8-5.5
		C655.6,760.2,654.6,758.3,653.5,756.4z"/>
	<path class="st1" d="M580.4,659.3l-8.2-12.8c-0.8-0.8-2.1-0.7-2.9,0.1c-0.2,0.2-0.3,0.5-0.4,0.8l-6.5,19.2
		c-4.6,1.3-8.9,3.4-12.9,6.2l-7.4-13c-0.8-0.8-2.1-0.8-2.9,0c-0.2,0.2-0.4,0.5-0.5,0.8l-4.3,17.3c-13.4,20.2-7.9,47.6,12.3,61
		c20.2,13.4,47.6,7.9,61-12.3c13.4-20.2,7.9-47.6-12.3-61C590.8,662.6,585.7,660.4,580.4,659.3L580.4,659.3z"/>
	<path class="st2" d="M576.2,714.1c-1.8,1-4.1,0.3-5.1-1.5c-0.1-0.3,0-0.6,0.2-0.7c0.3-0.1,0.6,0,0.7,0.2c0.7,1.3,2.3,1.8,3.6,1.1
		s1.8-2.3,1.1-3.6l0,0c-0.1-0.3,0-0.6,0.2-0.7c0.3-0.1,0.6,0,0.7,0.2C578.7,710.9,578.1,713.1,576.2,714.1z"/>
	
		<ellipse transform="matrix(0.8811 -0.4728 0.4728 0.8811 -265.3178 354.0039)" class="st2" cx="571.5" cy="704.8" rx="4.3" ry="1.7"/>
	<path class="st2" d="M550.1,707.6c1.1-5.2,6.1-8.5,11.3-7.4c0.6,0.1,1.1,0.3,1.6,0.5c1.8-5.6-1.2-11.6-6.8-13.4s-11.6,1.2-13.4,6.8
		s1.2,11.6,6.8,13.4l0,0C549.8,707.5,550,707.5,550.1,707.6z"/>
	<circle class="st3" cx="553.3" cy="700.1" r="3.7"/>
	<path class="st2" d="M575.4,694.4c1.1-5.2,6.1-8.5,11.3-7.4c0.6,0.1,1.1,0.3,1.6,0.5c1.8-5.6-1.2-11.6-6.8-13.4s-11.6,1.2-13.4,6.8
		s1.2,11.6,6.8,13.4l0,0C575.1,694.4,575.2,694.4,575.4,694.4z"/>
	<circle class="st3" cx="579.9" cy="686.7" r="3.7"/>
	
		<rect x="583.7" y="692.6" transform="matrix(0.7004 -0.7137 0.7137 0.7004 -317.4044 630.7185)" class="st2" width="17.8" height="1.8"/>
	
		<rect x="586.2" y="697.2" transform="matrix(0.8463 -0.5328 0.5328 0.8463 -280.4439 424.3929)" class="st2" width="17.8" height="1.8"/>
	
		<rect x="541.5" y="715.2" transform="matrix(0.982 -0.1891 0.1891 0.982 -125.459 116.9815)" class="st2" width="17.8" height="1.8"/>
	
		<rect x="544" y="719.9" transform="matrix(0.9118 -0.4106 0.4106 0.9118 -247.1988 290.6268)" class="st2" width="17.8" height="1.8"/>
	<path class="st4" d="M46,445.1C11.8,414.3-8.9,365.4,3.8,321.2c28.7,41,71,70.4,119.3,83.2c18.7,4.9,39.9,8.3,51.3,23.9
		c7.1,9.7,8.7,22.5,7,34.4c-1.7,11.9-6.3,23.1-11,34.2l0.2,3C125.6,491.1,80.1,475.9,46,445.1z"/>
	<path class="st2" d="M4.7,321.3c8.7,36.7,29.1,70.8,57.9,95.3c6.2,5.3,13,10.1,20.5,13.2c7.4,3,15.5,3.9,23.4,2.7
		c7.4-1,14.8-2.8,22.3-1.9c7.9,0.9,14.5,5.3,19.1,11.7c5.6,7.8,8.1,17.2,10.3,26.4c2.4,10.3,4.7,20.9,11.4,29.3
		c0.8,1-0.8,2.2-1.6,1.2c-11.8-14.6-10.2-34.8-18.7-50.9c-4-7.5-10.3-13.9-18.9-15.5c-7.6-1.4-15.2,0.5-22.7,1.5
		c-7.8,1.1-15.4,0.8-23-1.8c-7.7-2.7-14.7-7.3-21-12.4c-14.2-11.7-26.5-25.6-36.5-41.1C15.9,361.5,7.6,342,2.7,321.5
		C2.4,320.3,4.4,320.1,4.7,321.3L4.7,321.3z"/>
	<path class="st2" d="M52.8,409.1c-10,8.8-24.9,9.1-35.2,0.7c-1-0.8,0.2-2.4,1.2-1.6c9.6,7.9,23.5,7.6,32.7-0.7
		C52.6,406.6,53.8,408.2,52.8,409.1L52.8,409.1z"/>
	<path class="st2" d="M102.8,433.6c0.9-13.1-3.1-26.2-11.4-36.4c-0.8-1,0.8-2.2,1.6-1.2c8.6,10.7,12.7,24.3,11.7,37.9
		C104.7,435.1,102.7,434.8,102.8,433.6z"/>
	<path class="st2" d="M18.6,361c4.5-2.6,7.4-7.2,7.7-12.4c0.1-1.3,2.1-1,2,0.3c-0.4,5.7-3.6,10.8-8.5,13.7c-0.5,0.3-1.1,0.2-1.4-0.2
		C18,362,18.1,361.4,18.6,361L18.6,361z"/>
	<path class="st4" d="M146.6,259c0,0.8-0.1,1.6-0.1,2.5c-0.3,11,0.3,21.9,1.8,32.8c0.1,0.8,0.2,1.7,0.3,2.5
		c3.8,26.2,12.5,51.4,25.5,74.4c5.2,9.1,11.1,17.9,17.6,26.1c9,11.4,19.7,23,24.3,36.4c0.5,1.4,0.9,2.8,1.2,4.2l-42.9,61.5
		c-0.2,0.1-0.3,0.2-0.5,0.3l-1.6,2.5c-0.4-0.4-0.7-0.8-1.1-1.2c-0.2-0.2-0.4-0.5-0.6-0.7c-0.1-0.2-0.3-0.3-0.4-0.5
		c0-0.1-0.1-0.1-0.1-0.1c-0.1-0.1-0.2-0.3-0.4-0.4c-2.1-2.4-4.1-4.8-6.2-7.2c0,0,0,0,0,0c-15.6-18.4-29.8-38.2-40.6-59.6
		c-0.3-0.6-0.7-1.3-1-2c-4.8-9.7-8.8-19.7-11.9-30c-1.7-5.7-3.1-11.4-4.3-17.2c-2.9-15-3.4-30.3-1.5-45.5
		c3.7-30.2,17.1-58.8,40.7-77.5C145.4,259.9,146,259.5,146.6,259z"/>
	<path class="st2" d="M147.3,259.7c-15.1,34.5-19.3,74.1-11.2,110.9c1.8,8,4.3,15.9,8.4,22.9c4.1,6.8,10,12.5,17,16.3
		c6.5,3.7,13.5,6.7,19,11.9c5.8,5.5,8.4,13,8.2,20.8c-0.2,9.6-3.8,18.6-7.7,27.3c-4.3,9.6-8.9,19.5-8.5,30.3c0,1.3-2,1.3-2,0
		c-0.6-18.7,12.8-33.9,15.7-51.9c1.3-8.4,0.2-17.3-5.8-23.7c-5.2-5.7-12.5-8.8-19.1-12.4c-6.9-3.9-12.8-8.6-17.2-15.3
		c-4.5-6.8-7.3-14.7-9.3-22.5c-4.3-17.9-5.8-36.4-4.4-54.8c1.5-21,6.6-41.5,15-60.8C146,257.5,147.8,258.5,147.3,259.7L147.3,259.7z
		"/>
	<path class="st2" d="M132.8,358.7c-13.3,1-25.3-7.7-28.5-20.6c-0.3-1.3,1.7-1.8,2-0.5c2.9,12.1,14.2,20.2,26.6,19.1
		C134.1,356.6,134.1,358.6,132.8,358.7z"/>
	<path class="st2" d="M158,408.3c8.7-9.9,13.3-22.8,12.9-35.9c0-1.3,2-1.3,2,0c0.4,13.7-4.4,27.1-13.5,37.4
		C158.6,410.8,157.1,409.3,158,408.3L158,408.3z"/>
	<path class="st2" d="M134.4,299.7c5.1,0.7,10.3-1.3,13.6-5.2c0.8-1,2.3,0.5,1.4,1.4c-3.7,4.3-9.4,6.5-15.1,5.8c-0.6,0-1-0.5-1-1
		C133.4,300.2,133.8,299.7,134.4,299.7L134.4,299.7z"/>
	<path class="st4" d="M538.5,263.1c6-33-3.9-70.4-31-90.1c1.7,36.4-9.5,72.2-31.6,101.2c-8.6,11.1-19.3,22.6-18.9,36.7
		c0.3,8.7,5,16.9,11.3,22.9c6.3,6.1,14,10.5,21.6,14.8l1.2,1.8C513.2,325.1,532.6,296.1,538.5,263.1z"/>
	<path class="st2" d="M507,173.5c11.5,25.2,14.7,53.5,9.2,80.6c-1.1,5.9-3.1,11.5-5.9,16.8c-2.9,5-7.2,9.2-12.2,12
		c-4.7,2.7-9.8,5-13.7,8.8c-4,4-6.1,9.6-5.8,15.3c0.2,7,3,13.5,5.9,19.8c3.2,7,6.7,14.1,6.5,22c0,1,1.5,0.9,1.5,0
		c0.3-13.7-9.7-24.6-11.9-37.6c-1.1-6.1-0.3-12.6,4-17.3c3.7-4.2,9-6.5,13.8-9.2c5-2.7,9.3-6.6,12.4-11.3c3.1-5.1,5.3-10.7,6.5-16.5
		c3-13.1,3.9-26.6,2.7-39.9c-1.3-15.3-5.2-30.2-11.5-44.1C507.9,171.8,506.7,172.6,507,173.5L507,173.5z"/>
	<path class="st2" d="M518.5,245.5c9.7,0.6,18.4-5.9,20.6-15.3c0.2-0.9-1.2-1.3-1.4-0.4c-2,8.8-10.1,14.8-19.2,14.2
		C517.5,243.9,517.6,245.4,518.5,245.5z"/>
	<path class="st2" d="M500.6,281.8c-6.4-7.2-9.9-16.5-9.7-26c0-1-1.5-0.9-1.5,0c-0.1,10,3.5,19.7,10.2,27.1
		C500.2,283.6,501.3,282.5,500.6,281.8L500.6,281.8z"/>
	<path class="st2" d="M516.8,202.5c-3.7,0.5-7.5-0.9-10-3.7c-0.6-0.7-1.7,0.4-1,1.1c2.8,3.1,6.9,4.6,11,4.1c0.4,0,0.7-0.3,0.7-0.8
		C517.5,202.8,517.2,202.5,516.8,202.5L516.8,202.5z"/>
	<path class="st4" d="M397.6,200.8c0.4,0.5,0.8,0.9,1.1,1.4c5.1,6.2,9.6,12.8,13.6,19.7c0.3,0.5,0.6,1.1,0.9,1.6
		c9.5,16.8,15.7,35.2,18.5,54.2c1.1,7.6,1.6,15.2,1.5,22.9c-0.1,10.6-1.1,22,2.2,31.8c0.3,1,0.7,2,1.2,3l52.1,16.3
		c0.1,0,0.3,0,0.4-0.1l2.1,0.7c0-0.4,0.1-0.8,0.1-1.2c0-0.2,0-0.5,0-0.7c0-0.2,0-0.3,0-0.4c0-0.1,0-0.1,0-0.1c0-0.1,0-0.3,0-0.4
		c0.1-2.3,0.3-4.6,0.4-6.9c0,0,0,0,0,0c0.8-17.5,0.1-35.3-3.2-52.4c-0.1-0.5-0.2-1-0.3-1.6c-1.5-7.7-3.7-15.3-6.5-22.6
		c-1.5-4-3.3-8-5.2-11.8c-5-9.9-11.6-19-19.4-26.9c-15.6-15.7-36.1-26.3-58-26.5C398.7,200.8,398.2,200.8,397.6,200.8z"/>
	<path class="st2" d="M397.5,201.5c24.4,13.3,43.9,33.9,55.9,58.9c2.7,5.3,4.5,11.1,5.4,17c0.7,5.8-0.2,11.6-2.5,17
		c-2.1,5-4.8,9.9-5.6,15.3c-0.8,5.6,0.9,11.3,4.6,15.7c4.4,5.5,10.5,9,16.6,12.3c6.8,3.6,13.8,7.3,18.4,13.6
		c0.6,0.8,1.7-0.1,1.2-0.9c-8-11.1-22.5-13.8-32.2-22.9c-4.5-4.2-7.8-9.9-7.3-16.2c0.5-5.6,3.3-10.6,5.4-15.7
		c2.4-5.2,3.4-10.8,3.1-16.5c-0.6-5.9-2.2-11.7-4.7-17.1c-5.5-12.2-12.9-23.5-21.9-33.5c-10.2-11.4-22.3-21-35.8-28.3
		C397.2,199.7,396.7,201.1,397.5,201.5L397.5,201.5z"/>
	<path class="st2" d="M450,252.1c8.1-5.3,11.2-15.7,7.2-24.6c-0.4-0.9-1.8-0.3-1.4,0.6c3.7,8.2,0.8,17.9-6.7,22.9
		C448.3,251.5,449.2,252.6,450,252.1L450,252.1z"/>
	<path class="st2" d="M457.6,291.9c-9.4-1.9-17.8-7.2-23.4-15c-0.6-0.8-1.7,0.1-1.2,0.9c5.9,8.1,14.6,13.6,24.4,15.5
		C458.4,293.6,458.6,292.1,457.6,291.9L457.6,291.9z"/>
	<path class="st2" d="M422.8,218.8c-2.7,2.7-6.5,3.8-10.2,3.1c-0.9-0.2-1.1,1.3-0.2,1.5c4.1,0.8,8.3-0.4,11.3-3.4
		c0.3-0.3,0.4-0.7,0.1-1C423.6,218.6,423.1,218.6,422.8,218.8z"/>
	<path class="st3" d="M131.3,378c15,0,27.2,12.2,27.2,27.2v0c0,13-9.2,24.2-22,26.7v44.5h-17.4V378H131.3z"/>
	<path class="st5" d="M797.9,638.8v9.3c-4,5.1-8,10-12.2,14.8c-0.5,0.5-0.9,1-1.4,1.6c-0.7,0.8-1.4,1.7-2.2,2.5v-28.2H797.9z"/>
	<path class="st3" d="M751.6,619.3c-7.3,0-13.1,5.9-13.1,13.1v18.9c0,7.3,5.9,13.1,13.1,13.1h32.7c0.5-0.5,0.9-1,1.4-1.6
		c4.2-4.9,8.3-9.8,12.2-14.8c0.3-0.3,0.5-0.7,0.8-1c2.3-2.9,4.5-5.8,6.7-8.8c1.7-2.3,3.4-4.7,5-7c0,0,0,0,0,0
		c2.8-3.9,5.5-7.9,8.1-11.9H751.6z"/>
	<path d="M835.7,457.5c-2-0.7-4.1-1-6.2-1h-5.4c-2,0-3.9,0.3-5.8,0.9c-8.1,2.5-13.6,10-13.6,18.5v157.8c0,0.6,0,1.2,0.1,1.7
		c0.1,1,0.3,2,0.5,3c1.7-2.3,3.4-4.7,5-7c0,0,0,0,0,0c2.8-3.9,5.5-7.9,8.1-11.9c1.4-2.2,2.8-4.4,4.2-6.6
		c9.9-15.9,18.7-32.4,26.2-49.6v-87.4C848.9,467.5,843.6,460.1,835.7,457.5z"/>
	<path class="st5" d="M173.9,638.8v18.8c-4.5-5.4-8.8-10.9-13-16.5c-0.6-0.8-1.1-1.5-1.7-2.3H173.9z"/>
	<path d="M204.3,619.3h-58.7c1.9,2.9,3.7,5.7,5.6,8.5c2.5,3.7,5.1,7.4,7.8,11c0.6,0.8,1.1,1.6,1.7,2.3c4.2,5.6,8.6,11.1,13,16.5
		c0.8,1,1.7,2,2.5,3c1.1,1.3,2.2,2.6,3.4,3.9h24.6c7.3,0,13.1-5.9,13.1-13.1v-18.9C217.5,625.2,211.6,619.3,204.3,619.3z"/>
	<path d="M140.8,458.6c-2.8-1.4-5.8-2.2-9-2.2h-5.4c-2.5,0-5,0.5-7.4,1.5c-7.3,3-12,10.1-12,17.9v67.8c10.1,26.5,23,51.9,38.5,75.7
		c1.9,2.9,3.7,5.7,5.6,8.5v-152C151.3,468.6,147.2,461.9,140.8,458.6z"/>
	<polygon class="st6" points="359.3,751.5 376.9,747.4 369.7,677.6 343.7,683.5 	"/>
	<path d="M375.3,690.9c-0.4-1.2-0.6-2.5-0.7-3.8c-0.1-1.5-0.4-3-0.9-4.5c-0.5-1.3-1.1-2.6-1.8-3.8c-0.3-0.6-0.7-1.3-1-1.9
		c-0.3-0.6-0.6-1.3-0.9-2c-10.3-30.4-24.7-71.8-34.7-96c-5.9-14.2-42-19-76-20.2c-4.2-0.2-8.3-0.2-12.3-0.3c-1.4,0-2.8,0-4.1,0
		c-3.5,0-6.9,0-10.2,0c-0.4,0-0.9,0-1.3,0c-2.4,0-4.7,0.1-7,0.1c-15.4,0.3-26.8,1-28.8,1.1l-18-11.3l-3.5-2.2l-0.4,2.2l-2.8,16.9
		l-4.8,28.8l12.1,3.4l7.9,2.2l46.6,13.1l9.9,2.8l0.1,0l16.7,0l45.6-0.1l2.2,5.8c-3.1,4.8-1.7,11.1,3.1,14.2c0.4,0.2,0.7,0.4,1.1,0.6
		l1.7,0.8l20.8,55.1c0.1,5,1.6,9.8,4.5,13.9c0.4,0.5,0.7,1,1.1,1.5l0.5,0.5l8,15.7l4.8-1.1l20.3-4.7l0.1-0.2c0,0,0.3-0.6,0.7-1.5v0
		C375.2,712,378.8,701.1,375.3,690.9z"/>
	<path d="M424.8,756.1c-3.2-14.1-17.2-22.9-31.2-19.7c-0.1,0-0.1,0-0.2,0l-14.1-6.3l-3.9,2.8l-16.3,11.5l-1.3,0.3l-4.4,1l6,26.4
		l65.6-15L424.8,756.1z"/>
	<path class="st6" d="M337.8,715.5l-6,48.2l-0.2,1.6l-0.9,7.2c-3.4-1.4-6.9-2.8-10.2-4.3c-3.2-1.4-6.3-2.8-9.4-4.3v-48.4
		L337.8,715.5z"/>
	<circle class="st7" cx="208.7" cy="347.8" r="36.1"/>
	<path d="M341.6,733.9c-1-1.4-2-2.8-2.1-4.2c-0.2-4.8-0.5-9.6-0.7-14.3c-0.2-3.3-0.4-6.5-0.5-9.7c0-0.4,0-0.8-0.1-1.2
		c-0.3-5.2,1.2-10.8,2.7-16.1c0.5-1.8,1-3.5,1.4-5.3c1.1-3.9,1.6-8,1.4-12.1c-2.6-32.4-14-62.8-19.1-68
		c-7.8-7.8-43.1-25.8-65.3-36.8c-3.9-2-7.5-3.7-10.4-5.1c-2.6-1.2-4.6-2.2-6-2.9c-1.1-0.5-1.8-0.8-2-1l-0.1-0.1l-8,0.9l-1.3,0.2
		l-7.1,0.8l-46.2,5.2l-7.1,0.8l-10.1,1.1l-9.1,1l-0.3,0l-0.1,0.3c0,0,0,0.1,0,0.2c-1.6,9.9-1.6,20,0,29.8c1.2,6.7,3.4,13.5,7.4,19.3
		c0.5,0.8,1.1,1.5,1.7,2.2c0,0,0,0.1,0.1,0.1c0.1,0.2,0.3,0.3,0.4,0.5v0c4.5,5.3,10.6,9,17.4,10.6c1,0.3,2,0.5,3.1,0.7
		c11.2,2,23.8,3.8,36.2,5.4c5.1,0.7,10.2,1.3,15.1,1.9c9.9,1.2,19,2.1,26.6,2.9c10.6,1.1,18.1,1.8,19.7,1.9l18.5,86.5
		c-3,5.1-2.1,11.5,2.1,15.6l1.5,1.5l1.8,8.2l5.8,7.8l0.7,1h25.6l0.1-0.2c0.1-0.1,9.1-11.7,8.5-25.5
		C343.6,736.7,342.6,735.3,341.6,733.9z"/>
	<path class="st7" d="M340.9,443.8c-7.3-2-14.9,2.3-16.9,9.6c-0.2,0.8-0.4,1.6-0.4,2.4l-30,9.4l1.3,19.6L337,471
		c7.6,0.2,14-5.9,14.1-13.5C351.3,451.1,347.1,445.5,340.9,443.8L340.9,443.8z"/>
	<path class="st8" d="M321.3,476.3l-22.4,8.5l-0.6,1.1c-2.9,5.5-9.7,7.7-15.2,4.9l0,0l0,0l-50.4,19.1c0,0-22.5-22.5-38.5-42.6
		l5.5-33.6c1.3-7.8,3.9-15.3,7.9-22.1c32.8,7.2,51.7,53.1,51.7,53.1l59.2-11.3L321.3,476.3z"/>
	<path class="st9" d="M203.5,381.9c-9,2.4-19-0.8-26-7s-11.5-14.9-14-23.9c-1.9-6.6-2.7-13.9,0.2-20.1s10.8-10.4,16.9-7.2
		c-3.8-4.4-1.9-11.6,2.5-15.4s10.4-4.8,16.2-5.4c8.3-0.9,16.9-0.9,24.9,1.8s15.1,8.6,17.6,16.6c5.2,2.4,11.4,1,15.1-3.4
		c0.9,5.1-1.6,10.2-6.3,12.4l12.2-3.9c2.1,4.4-1.6,9.9-6.3,11.3c-4.7,1.4-9.7-0.1-14.2-2.2s-8.8-4.6-13.6-5.4s-10.5,0.8-12.7,5.1
		c-1.2,2.3-1.2,5-1.9,7.4s-2.4,5-5,5.2c-1.6,0.1-3.2-0.7-4.8-0.6c-2,0.4-3.6,2-4.1,4c-0.4,2-0.4,4,0,6l3.1,23.6L203.5,381.9z"/>
	<path class="st8" d="M248.8,561.2l-1.9-2.9L233,537.4l-0.3-0.4l4.3-22.4l1.3-7l2.9-15.2l-0.9-34.8l-0.6-24.6l-0.1-3.9l-3.1-9.4
		c-3-8.9-9.5-16.2-18-20.1l-20.8-9.5c-5.1-2.3-11.1-0.1-13.4,5c-0.1,0.2-0.2,0.4-0.3,0.6c-2.9,0.4-15.2,2.5-25.7,10.6
		c-7.3,5.6-12.5,13.6-14.5,22.6c0,0.1,0,0.1,0,0.2c-1.4,6.2-2.4,16-3.1,29.3c-0.4,8.8-0.7,19.1-0.9,30.9
		c-0.2,19.7,0.9,39.3,3.3,58.8c0.2,1.9,0.5,3.7,0.7,5.6c0.2,1.6,1.7,3,3.2,4.5c1.3,1.3,2.7,2.7,2.9,3.9c0.2,1.1-0.5,2.2-1.3,3.4
		c-0.1,0.2-0.2,0.3-0.3,0.5c-1,1.5-2.1,3-1.8,4.5c0.6,3.6,1,7.2,1.4,10.7c0.4,4.8,1.1,9.7,2.1,14.4c0.4,1.5,0.8,2.9,1.2,4.4
		c1,3.5,2.3,6.9,3.6,10.2c1.1,2.9,2.2,5.9,3.1,8.9c0.2,0.5,0.4,1.1,0.5,1.6l0.1,0.3l0.3,0h0c0.4-0.7,0.9-1.4,1.4-2
		c0,0,0.1-0.1,0.1-0.1c0.1-0.2,0.3-0.4,0.5-0.5c2.2-2.4,7-6.7,17.4-13.9c2.3-1.6,4.9-3.4,7.9-5.3c10.7-7,25.7-16.1,46.6-27.9
		c5.2-3,10.9-6.1,16.9-9.4L248.8,561.2z"/>
	<path d="M361,781.2c-4.9-4.9-11.6-7.7-18.5-7.7l-10.9-8.2l-1.4-1.1l-9.7,3.9c3.4,1.5,6.8,2.9,10.2,4.3c10.7,4.4,21.7,8.3,32.9,11.7
		C362.8,783.2,362,782.1,361,781.2z"/>
	<path class="st2" d="M480.5,313.6V15.7h-10.4v297.9c-29.5,2.7-52.1,27.4-52.1,57.1v15.6h36.5c0,11.5,9.3,20.9,20.8,20.9
		s20.9-9.3,20.9-20.8v0h36.5v-15.6C532.6,341.1,510,316.3,480.5,313.6z"/>
	<polygon class="st10" points="602.5,750.8 588.8,744.3 607.5,687.4 627.6,697 	"/>
	<path class="st10" d="M693.7,741.6c-4,2.5-8,4.9-12,7.2v0l-0.1,0l0,0l-1.5,0.4l-2.2-5.8l-5.1-13.5l-13.9-36.7l21.6-5.3l1.2,5
		l9.1,37.1l2.6,10.6L693.7,741.6z"/>
	<path class="st10" d="M638.6,503.5c4,6.6,12.6,8.7,19.2,4.8c0.6-0.4,1.3-0.8,1.8-1.3l43,24.7l-1.9-25.4l-40.6-19.6
		c-4.5-4.6-11.6-5.5-17.2-2.2c-6.4,3.9-8.5,12.2-4.7,18.7C638.5,503.3,638.5,503.4,638.6,503.5z"/>
	<path class="st8" d="M684.2,522.4l7.6,4.6l34.2,20.8c9.4,5.9,21.9,3,27.8-6.4l0,0l0,0c2.5-4.2,3.4-9.1,2.5-13.9l-15.2-75.9
		c-2.2-11.4-13.2-18.9-24.6-16.8c-1,0.2-2.1,0.5-3.1,0.8c-10,3.5-15.5,14.2-12.6,24.4l15.9,53.8l-24.3-11.3L684.2,522.4z"/>
	<path d="M824.3,597.2c0,0,0-0.1-0.1-0.3l0-0.1c-0.1-0.4-0.1-0.8-0.2-1.2c-2-10.1-4.7-20.1-7.8-30c-1.9-6-4.4-11.8-7.5-17.3
		c-0.1-0.2-0.2-0.4-0.3-0.5l-0.4-0.6l-3.1,1.1l-0.1,0l-47.3,17.3l-13.7,5l-0.4,0.2l-2.3,9.5l-32.7-4.2l-26.6-3.5l-7.7-1
		c-6.7-0.9-13.5,1-18.8,5.1c-5.6,4.3-9.1,10.7-10,17.6c-0.1,0.8-0.2,1.5-0.2,2.3l-2.3,86.2v0.1l1.1,2.1l22.3,44.8h15.5l9.1,0h7.4
		l-15.5-39.1l0.3-0.5c2.9-4.5,3.6-10.2,1.8-15.2l1.7-5c3.6-10.4,1.9-15.4-0.3-21.7c-1.9-5.1-3.1-10.5-3.4-16l-0.4-7.1
		c9.1,1.6,17.5,3.4,25.7,5.1c2.7,0.6,5.4,1.2,8.1,1.8c7.6,1.7,14.9,3.3,22.1,4.7c14.5,2.8,28.5,4.5,42.8,3.4c0.3,0,0.6,0,0.8-0.1
		c3.5-0.3,7-0.7,10.5-1.4c2-0.4,4-0.8,6-1.2c0.6-0.1,1.1-0.3,1.7-0.4c1.6-0.4,3.1-1,4.5-1.8c2-1.1,3.9-2.5,5.5-4c0,0,0,0,0,0
		c2.8-3.9,5.5-7.9,8.1-11.9c1.4-2.2,2.8-4.4,4.2-6.6C824.6,607.3,825.4,601.7,824.3,597.2z"/>
	<path d="M824.6,581c-0.2-0.6-0.3-1.3-0.5-1.9c-1.6-4.8-3.4-9.5-5.5-14c-2.4-5.2-5.2-10.8-8.6-16.8c-1.6-2.9-3.4-6-5.3-9.1
		c-0.9-1.6-1.9-3.2-2.9-4.8c0-0.1-0.1-0.1-0.1-0.2l-0.3-0.5l-46.8,6.3l-17.4,2.3l-1,8.7l-0.2,2.2c0,0,0,0,0,0l-0.7,5.9v0l-0.9,7.7
		l-0.1,0l-25.8-3.3l-26.6-3.5l-14.3-1.8c-6.7-0.9-13.5,1-18.8,5.1c-5.6,4.3-9.1,10.7-10,17.6c-0.1,0.7-0.2,1.4-0.2,2.1l-13.5,32
		c-8.1,19.1-13.2,39.4-15.3,60l-9.9,31.7l1.4,0.1l21,2l5.5,0.5l12.2-17.8c1.4-2,2.7-4.1,3.9-6.3c2-3.5,3.8-7.1,5.4-10.8l26.4-62.8
		c2,0.4,4.1,0.7,6.1,1c9.3,1.5,18.1,2.7,26.6,3.7c27.7,3.1,51.6,3.3,73,0.7c6-0.7,11.8-1.7,17.4-2.9c2.1-0.4,4.1-0.9,6.1-1.4
		c0.5-0.1,0.9-0.2,1.4-0.3c8.4-2.2,15.1-8.4,17.8-16.7C825.6,590.9,825.8,585.8,824.6,581z"/>
	<ellipse class="st10" cx="725.2" cy="359" rx="32.4" ry="33.1"/>
	<path class="st8" d="M802,535.4c-0.1-0.4-0.1-0.7-0.2-1.1c-0.8-4.1-2.8-8-4.7-11.9c-1.8-3.7-3.6-7.2-4.3-10.6
		c-0.7-3.4-0.3-6.8,0.1-10.1c0.4-3.6,0.9-7.3-0.1-10.9c-5.2-18.3-12.4-36.1-21.4-52.9c-4.6-15.1-17.7-26.1-33.3-28.1
		c0.9-1.7,1.3-3.6,1.1-5.5c-0.3-2.5-1.5-4.7-3.4-6.3c-1.9-1.5-4.2-2.2-6.6-1.9l-15,1.7c-5,0.6-8.6,5.2-8,10.2
		c0.1,0.7,0.3,1.5,0.5,2.2c-14,17.8-21.1,34-21.8,49.3v0c-0.1,1.8-0.1,3.5,0,5.3c0.3,5.7,1.6,11.3,3.7,16.7
		c2.5,6.1,5.9,11.9,10,17.1c0.8,1.1,1.7,2.1,2.6,3.1c0.8,1,1.8,2,2.8,3.2l2.6,4.1l2.5,3.8l13.1,30.2l6.7-0.2l0.9,6.7l0.2,1.5
		l4.3,15.5l0.3,1.2l5.9-2.8l35.3-16.7l26.4-12.5L802,535.4z"/>
	<path class="st11" d="M688.9,481.4c3,7.4,7.2,14.2,12.5,20.1c0.9,1.1,1.9,2.1,2.9,3.2l5.1,8c18.9-14.1,34.2-69.8,34.2-69.8
		l-21.3-4.1L688.9,481.4z"/>
	<path class="st10" d="M676,395.2c3.9,6.7,1.7,15.2-4.8,19.3c-0.6,0.4-1.3,0.7-2,1l1.5,49.6l-21.5-13.5l1.9-45
		c-1.9-6.2,0.6-12.8,6.1-16.2c6.4-3.9,14.8-1.8,18.6,4.6c0,0,0,0,0,0C675.9,395,675.9,395.1,676,395.2z"/>
	<path class="st8" d="M672.5,446.3l-23.6,3.4l1,48.9c0.1,7.1,3.9,13.6,10,17.2l0,0c7.5,4.4,17.1,3.3,23.4-2.7l55.8-53.6
		c8.1-7.7,8.8-20.5,1.6-29l0,0c-7.1-8.5-19.8-9.5-28.3-2.4c-0.2,0.1-0.3,0.3-0.5,0.4c-0.6,0.5-1.1,1-1.6,1.6l-36.8,42.4L672.5,446.3
		z"/>
	<path class="st9" d="M694.3,740.4l-0.9,0.2l-11.8,2.2l-3.8,0.7l-6,1.1l2.1,8.6c2.6-1.4,5.1-2.8,7.6-4.3l0,0l0.1,0v0
		c4.1-2.3,8.1-4.7,12-7.2c0.3-0.2,0.6-0.3,0.8-0.5L694.3,740.4z"/>
	<path class="st9" d="M606.8,741.5l-14.7-7.1l-2.3-1.1l-3.7,9.1l-25.8,5.7c-3.3,0.7-5.4,4-4.7,7.3c0.4,2,1.8,3.6,3.7,4.4l25.2,10.3
		l8-7.2l-2,9.7l9.5,3.9l10.4-33.1L606.8,741.5z"/>
	<path class="st9" d="M811.7,344.7c-5.5-6.4-8.1-14.9-12.5-22.2c-4.4-7.3-12-13.8-20.1-12.1c-5.6,1.2-9.9,6.1-12.1,11.6
		c-2.2,5.5-2.6,11.5-3,17.5c0.1-12.2-7.9-24-18.9-27.9c-11-3.9-24.3,0.4-31.2,10.2c-6.3-5.8-15.9-6-22.4-0.5
		c-6.2,5.5-7.6,16.1-3,23.2s14.5,9.7,21.7,5.8l2.6,2.4c-1.4,5.1,1.4,11,6.1,12.9c3.8,1.5,9.2,1.3,10.6,5.3c1,2.8-0.9,5.8-2.9,7.9
		c-2,2.2-4.3,4.4-4.6,7.3c-0.4,4.5,4.3,7.6,8.5,8.6c10.2,2.3,21.5-2.4,27.3-11.4c0.1-0.2,0.2-0.3,0.4-0.5c6.6-8.5,9.5-19.4,7.9-30
		c-0.3-2.1,0-3.6,1.4-4.1c6.2-2.1,23.5,2.3,28.7,6.4c5.2,4,9.4,9.4,14.5,13.6c5,4.3,11.5,7.6,17.9,6.4c5.1-0.9,9.5-4.7,12.4-9.2
		c2.9-4.5,4.6-9.7,6.1-14.9C835.9,357.5,820.4,354.8,811.7,344.7z"/>
	<path class="st1" d="M708.3,541.9v190.2c-3.6,2.5-7.3,4.9-11,7.3V554.5c0-5.4-1.8-9.7-4-9.7H526.8c-2.2,0-4,4.4-4,9.7V800
		c-2.2,0.2-4.4,0.4-6.7,0.6c-0.9,0.1-1.8,0.2-2.8,0.2c-0.5-1-1-2-1.6-3V541.9c0-1.5,0.1-3,0.2-4.4c0.9-12.5,5.4-21.6,10.6-21.6h175
		c0.6,0,1.3,0.1,1.8,0.4c4.4,1.9,7.8,10,8.7,20.6C708.3,538.5,708.3,540.2,708.3,541.9z"/>
	<path class="st1" d="M441.2,541.9v257.3c-0.2,0.2-0.3,0.5-0.4,0.7c-3.8-0.4-7.5-0.8-11.2-1.3V554.5c0-5.4-1.9-9.7-4.3-9.7H248.5
		c-2.4,0-4.3,4.4-4.3,9.7V724c-4-2.9-7.8-5.9-11.7-9V541.9c0-1.5,0.1-3,0.2-4.4c1-12.5,5.7-21.6,11.3-21.6h185.7
		c0.7,0,1.3,0.1,2,0.4c4.7,1.9,8.3,10,9.3,20.6C441.1,538.5,441.2,540.2,441.2,541.9z"/>
	<polygon class="st3" points="382,456.4 393.6,507.3 401,515.4 406.3,515.4 384.3,422.8 383.2,438.5 383.2,438.5 	"/>
	<path class="st3" d="M420.5,518c0-0.1-0.1-0.2-0.1-0.2c-0.1-0.2-0.3-0.5-0.5-0.6l-1.3-1.3l-7.1-7.1c-0.5-0.5-1.2-0.8-2-0.8h0l-5,0
		l-4.3,0l-6,0l-41,0.3l-26.9,0.2c-1.5,0-2.7,1.3-2.8,2.8c0,0.4,0.1,0.8,0.3,1.2l0.5,1.1l1.1,2.3l1.4,3l0.7,1.5
		c0.5,1,1.4,1.6,2.5,1.6h88c1.6,0,2.8-1.3,2.8-2.9C420.8,518.7,420.7,518.4,420.5,518L420.5,518z"/>
	<path class="st12" d="M326.8,518.9l0.7,1.5c0.5,1,1.4,1.6,2.5,1.6h88c1.6,0,2.8-1.3,2.8-2.9c0-0.4-0.1-0.7-0.2-1.1
		c0-0.1-0.1-0.2-0.1-0.2L326.8,518.9z"/>
	<polygon class="st12" points="383.2,438.5 383.2,438.5 402,515.4 406.3,515.4 384.3,422.8 	"/>
	<path class="st3" d="M412.8,223.3L410,223c-0.8-0.1-1.5,0.1-2.1,0.6l-1.7,1.3l-18.4,23c-0.6,0.5-1,1.2-1.1,1.9l-1,7.8l-25.6,195.1
		c-0.1,0.7,0.1,1.5,0.5,2l12.1,33.3l0.4,0.5l0.8,1.1c0.4,0.6,1,1,1.7,1.1l1.8,0.4c0.8,0.2,1.7,0,2.3-0.4c0.7-0.5,1.1-1.2,1.2-2
		l3.1-23.8v0l2-15.3l1.7-12.9v0l27.6-210.2C415.5,225,414.4,223.5,412.8,223.3L412.8,223.3z"/>
	<path class="st12" d="M406.2,224.8L372.7,488l0.4,0.5l0.8,1.1c0.4,0.6,1,1,1.7,1.1l1.8,0.4c1.6,0.4,3.1-0.6,3.5-2.1
		c0-0.1,0-0.2,0.1-0.3l34.5-262.2c0.2-1.6-0.9-3-2.5-3.2L410,223c-0.8-0.1-1.5,0.1-2.1,0.6L406.2,224.8z"/>
	<polygon class="st8" points="405.2,232.3 387.4,257.7 366.3,418.7 377.7,441.5 	"/>
	<polygon class="st3" points="578.6,456.4 567.1,507.3 559.7,515.4 554.3,515.4 576.3,422.8 577.4,438.5 577.4,438.5 	"/>
	<path class="st3" d="M634.4,508.4l-67.9-0.4l-6,0l-4.3,0l-5,0h0c-0.7,0-1.4,0.3-1.9,0.8l-8.5,8.5c-0.2,0.2-0.3,0.4-0.5,0.6
		c-0.1,0.1-0.1,0.1-0.1,0.2c-0.6,1.4,0,3.1,1.5,3.7c0.3,0.1,0.7,0.2,1.1,0.2h88c1.1,0,2.1-0.6,2.5-1.6l0.7-1.5l1.4-3l1.6-3.4
		c0.2-0.4,0.3-0.8,0.3-1.2C637.1,509.7,635.9,508.5,634.4,508.4z"/>
	<path class="st12" d="M633.8,518.9l-0.7,1.5c-0.5,1-1.4,1.6-2.5,1.6h-88c-1.6,0-2.8-1.3-2.8-2.9c0-0.4,0.1-0.7,0.2-1.1
		c0-0.1,0.1-0.2,0.1-0.2L633.8,518.9z"/>
	<polygon class="st12" points="577.4,438.5 577.4,438.5 558.6,515.4 554.3,515.4 576.3,422.8 	"/>
	<path class="st3" d="M600.5,452.6l-26.7-202.9c-0.1-0.8-0.5-1.5-1.1-1.9l-18.4-23l-1.7-1.3c-0.6-0.5-1.4-0.7-2.1-0.6l-2.8,0.4
		c-1.6,0.2-2.7,1.7-2.5,3.2l0,0L573,436.8v0l1.7,12.9l2,15.3v0l3.1,23.8c0.1,0.8,0.6,1.6,1.2,2c0.7,0.5,1.5,0.6,2.3,0.4l1.8-0.4
		c0.7-0.2,1.3-0.6,1.7-1.1l0.8-1.1l0.4-0.5l12.1-33.3C600.5,454.1,600.6,453.3,600.5,452.6z"/>
	<path class="st12" d="M554.4,224.8L588,488l-0.4,0.5l-0.8,1.1c-0.4,0.6-1,1-1.7,1.1l-1.8,0.4c-1.6,0.4-3.1-0.6-3.5-2.1
		c0-0.1,0-0.2-0.1-0.3l-34.5-262.2c-0.2-1.6,0.9-3,2.5-3.2l2.8-0.4c0.8-0.1,1.5,0.1,2.1,0.6L554.4,224.8z"/>
	<polygon class="st8" points="555.4,232.3 573.2,257.7 594.4,418.7 582.9,441.5 	"/>
	<path class="st3" d="M224.5,556.9c0,0.5,0,1-0.1,1.5c0,0.2-0.1,0.5-0.1,0.7c-1,3.8-4.5,6.5-8.4,6.5h-37.6v89.8
		c0,1.9-0.6,3.7-1.8,5.2c-0.9-1-1.7-2-2.5-3c-4.5-5.4-8.9-10.9-13-16.5v-75.5H144c-4.8,0-8.7-3.9-8.7-8.7c0-4.5,3.5-8.3,8-8.6
		c0.2,0,0.5,0,0.7,0h71.8C220.6,548.3,224.5,552.1,224.5,556.9z"/>
	<path class="st3" d="M824.1,556.9c0,3.6-2.2,6.8-5.6,8.1c-0.8,0.3-1.6,0.5-2.4,0.5c-0.2,0-0.5,0-0.7,0h-16.8v81.5
		c-0.2,0.3-0.5,0.7-0.8,1c-4,5.1-8,10-12.2,14.8c-2.7-1.5-4.4-4.4-4.4-7.5v-89.8h-37.6c-1.1,0-2.2-0.2-3.2-0.6
		c-2.6-1.1-4.6-3.3-5.2-6.1v0c-0.5-2-0.2-4.1,0.7-5.9c0,0,0,0,0,0c0.4-0.8,0.9-1.5,1.5-2.2c1.6-1.7,3.9-2.6,6.2-2.6h71.8
		C820.2,548.3,824.1,552.1,824.1,556.9L824.1,556.9z"/>
	<path d="M823.6,389.6c-15,0-27.2,12.2-27.2,27.2c0,0,0,0,0,0v0c0,13,9.2,24.2,22,26.7V488h17.4v-98.4H823.6z"/>
	<path class="st7" d="M348.4,489c-6.5-3.8-15-1.7-18.8,4.9c-0.4,0.7-0.8,1.4-1,2.2l-31.4,1.2l-4.2,14.6l44.6,2.3
		c7.3,2.2,15-2,17.2-9.3C356.5,498.7,353.9,492.2,348.4,489L348.4,489z"/>
	<path class="st8" d="M322.6,515.8l-32.2-0.4l-4.1-0.1l-65.6-0.8c0,0-17.8-17-33.3-34.5l2.2-15.7c2.1-15.4,9.8-29.6,21.5-39.8
		c22.2,14.8,35.1,44.2,35.1,44.2l21.6,9.7l0,0c15.2,0.7,30,5,43.2,12.6l7.1,4.1L322.6,515.8z"/>
	<path class="st13" d="M423.9,797.8h116.3c-7.9,1.2-15.9,2.1-24,2.8h-68.2C439.8,799.9,431.8,799,423.9,797.8z"/>
	<path class="st13" d="M447.3,739.3c2.3-20.3,14.5-40.5,33.8-47.3c-7.3,21-7,43.9,0.9,64.6c3.1,8,7.3,16.6,4.6,24.7
		c-1.7,5.1-5.9,9-10.6,11.5c-4.7,2.5-10,3.7-15.2,4.9l-1,0.9C451.3,779.9,445,759.6,447.3,739.3z"/>
	<path class="st2" d="M481.3,692.4c-11.1,12.8-17.9,28.7-19.4,45.5c-0.4,3.6-0.2,7.3,0.5,10.8c0.8,3.4,2.6,6.6,5.1,9.2
		c2.3,2.4,4.9,4.6,6.5,7.6c1.6,3.1,1.9,6.7,0.7,9.9c-1.4,4.1-4.1,7.4-6.9,10.5c-3.1,3.5-6.4,7.1-7.6,11.7c-0.2,0.6-1,0.3-0.9-0.3
		c2.2-8,9.9-12.7,13.5-19.9c1.7-3.4,2.4-7.3,0.7-10.8c-1.5-3.1-4.1-5.4-6.4-7.8c-2.5-2.4-4.3-5.5-5.3-8.8c-0.9-3.5-1.2-7.2-1-10.8
		c0.5-8.2,2.4-16.2,5.4-23.8c3.4-8.7,8.3-16.7,14.4-23.8C481,691.3,481.6,691.9,481.3,692.4L481.3,692.4z"/>
	<path class="st2" d="M462,732.5c-5.8-1.3-9.7-6.6-9.4-12.5c0-0.2,0.2-0.4,0.5-0.4c0.2,0,0.4,0.2,0.4,0.4
		c-0.4,5.5,3.4,10.4,8.7,11.6C462.9,731.7,462.6,732.6,462,732.5L462,732.5z"/>
	<path class="st2" d="M466.2,756.8c5-3.1,8.6-7.9,10.2-13.5c0.2-0.6,1-0.3,0.9,0.3c-1.7,5.9-5.5,10.9-10.7,14.1
		C466.1,757.9,465.7,757.1,466.2,756.8z"/>
	<path class="st2" d="M470.5,707.6c2.1,1,4.5,0.8,6.5-0.4c0.5-0.3,0.9,0.5,0.4,0.8c-2.2,1.3-4.8,1.5-7.2,0.5
		c-0.2-0.1-0.4-0.3-0.3-0.6C470,707.7,470.3,707.6,470.5,707.6L470.5,707.6z"/>
	<path class="st13" d="M540.5,727.4c-0.3,0.2-0.6,0.4-0.9,0.6c-4,2.7-7.8,5.8-11.4,9.1c-0.3,0.3-0.6,0.5-0.8,0.8
		c-8.4,8.2-15.3,17.8-20.2,28.5c-2,4.2-3.6,8.6-4.9,13.1c-1.8,6.2-3.2,13.1-6.8,18.2c-0.4,0.5-0.8,1-1.2,1.5l-33.3,0.4
		c-0.1,0-0.2-0.1-0.2-0.1l-1.3,0.1c0.1-0.2,0.1-0.5,0.2-0.7c0-0.1,0.1-0.3,0.1-0.4c0-0.1,0-0.2,0.1-0.3c0,0,0-0.1,0-0.1
		c0-0.1,0-0.2,0.1-0.2c0.3-1.4,0.6-2.7,1-4.1c0,0,0,0,0,0c2.5-10.4,6.2-20.5,11-30.1c0.1-0.3,0.3-0.6,0.5-0.9
		c2.2-4.2,4.8-8.3,7.7-12.1c1.6-2.1,3.3-4.1,5.1-6c4.7-4.9,10.1-9.1,16-12.3c11.9-6.5,25.7-9.1,38.5-5.4
		C539.8,727.2,540.2,727.3,540.5,727.4z"/>
	<path class="st2" d="M540.4,727.8c-16.5,3.5-31.6,12.2-42.9,24.7c-2.5,2.7-4.5,5.7-6.1,9c-1.4,3.3-1.9,6.8-1.5,10.4
		c0.3,3.3,1.1,6.6,0.6,9.9c-0.5,3.4-2.5,6.5-5.4,8.4c-3.5,2.4-7.7,3.4-11.8,4.3c-4.6,0.9-9.4,1.8-13.1,4.8c-0.5,0.4-1-0.4-0.5-0.7
		c6.6-5.1,15.5-4.2,22.8-7.8c3.4-1.7,6.3-4.4,7.1-8.2c0.7-3.3-0.1-6.8-0.4-10.1c-0.5-3.4-0.1-6.9,1.1-10.2c1.4-3.4,3.3-6.5,5.7-9.2
		c5.3-6.2,11.6-11.5,18.6-15.8c8-4.9,16.7-8.4,25.8-10.3C540.9,726.8,541,727.7,540.4,727.8L540.4,727.8z"/>
	<path class="st2" d="M500.9,748.3c-3.8-4.5-3.8-11.1,0.1-15.6c0.4-0.4,1.1,0.1,0.7,0.6c-3.6,4.2-3.6,10.3,0,14.5
		C502,748.2,501.3,748.7,500.9,748.3z"/>
	<path class="st2" d="M489.5,770.2c5.8,0.6,11.6-1.1,16.3-4.7c0.5-0.4,1,0.4,0.5,0.7c-4.9,3.7-10.9,5.4-17,4.8
		C488.8,771,489,770.2,489.5,770.2L489.5,770.2z"/>
	<path class="st2" d="M522.6,733.5c1.1,2,3.1,3.4,5.4,3.6c0.6,0,0.4,0.9-0.1,0.9c-2.5-0.2-4.8-1.7-6-3.9c-0.1-0.2-0.1-0.5,0.1-0.6
		C522.2,733.3,522.5,733.3,522.6,733.5z"/>
	<circle class="st13" cx="557.8" cy="745.1" r="10.6"/>
	<circle class="st13" cx="595.1" cy="719.1" r="10.6"/>
	<path class="st2" d="M498,138.7c-62.3,16.4-131.3,26.4-201.5,29.1c-10.3,0.6-20.6,0.5-30.9-0.2c-22.6-1.9-41.9-9-63.5-12.9
		c-10.4-1.9-21.9-3.2-32.3-5.2c2.4-3,4.9-5.9,7.4-8.9c22.5,1.9,45.3,8.1,68.1,11c38.7,4.9,82-0.6,111.4-14.1
		c14.2-6.6,25.1-14.8,39.3-21.4c1.9-1,4-1.6,6.2-1.9c4.5-0.4,8.4,1.4,11.6,3c23.8,12,58.3,21.8,90.4,16.4
		C506.4,135.5,501.9,137.7,498,138.7z"/>
	<path class="st2" d="M639.8,181c0.3-0.1,0.6-0.1,0.9-0.1c-1.2-0.8-2.4-1.6-3.5-2.6L639.8,181z"/>
	<path class="st2" d="M831.7,204.7c-13.4,1.1-26.8,1.9-40.4,2.4c-10.3,0.6-20.6,0.5-30.9-0.2c-22.6-1.9-41.9-9-63.5-12.9
		c-19.8-3.6-43.8-5.3-56.3-13.1c32.4-5.6,66,5.8,99.4,10.1c27,3.3,54.4,2,81-4C824.8,192.7,828.4,198.6,831.7,204.7z"/>
</g>
<g id="Layer_1">
</g>
</svg>
