<svg xmlns="http://www.w3.org/2000/svg" viewBox="0 0 1920.17 1081.88"><defs><style>.cls-1{fill:#727d71;}.cls-2,.cls-3,.cls-4,.cls-6{fill:#15202b;}.cls-2{opacity:0.1;}.cls-3{opacity:0.5;}.cls-4{opacity:0.2;}.cls-5{fill:#6d4c3d;}</style></defs><g id="Layer_2" data-name="Layer 2"><g id="Layer_1-2" data-name="Layer 1"><g id="BakgrundMobil"><rect class="cls-1" width="1919.84" height="1081.77"/><polygon class="cls-2" points="571.17 830.08 571.17 879.08 182.17 654.49 0.17 759.57 0.17 710.57 182.17 605.49 571.17 830.08"/><polygon class="cls-3" points="571.17 752.88 571.17 801.88 182.17 577.29 0.17 682.37 0.17 633.37 182.17 528.29 571.17 752.88"/><polygon class="cls-4" points="571.17 673.88 571.17 722.88 182.17 498.29 0.17 603.37 0.17 554.37 182.17 449.29 571.17 673.88"/><polygon class="cls-2" points="571.17 1066.98 571.17 1076.42 502.65 1076.42 182.17 891.39 0.17 996.47 0.17 947.47 182.17 842.39 571.17 1066.98"/><polygon class="cls-3" points="571.17 989.78 571.17 1038.78 182.17 814.19 0.17 919.27 0.17 870.27 182.17 765.19 571.17 989.78"/><polygon class="cls-4" points="571.17 910.78 571.17 959.78 182.17 735.19 0.17 840.27 0.17 791.27 182.17 686.19 571.17 910.78"/><polygon class="cls-3" points="295.15 1076.42 210.28 1076.42 182.17 1060.19 154.06 1076.42 69.19 1076.42 182.17 1011.19 295.15 1076.42"/><polygon class="cls-4" points="0.17 1076.42 17.23 1076.42 182.17 981.19 347.11 1076.42 431.98 1076.42 182.17 932.19 0.17 1037.27 0.17 1076.42"/><polygon class="cls-2" points="1349.17 830.88 1349.17 879.88 960.17 655.29 571.17 879.88 571.17 830.88 960.17 606.29 1349.17 830.88"/><polygon class="cls-3" points="1349.17 752.68 1349.17 801.68 960.17 577.09 571.17 801.68 571.17 752.68 960.17 528.09 1349.17 752.68"/><polygon class="cls-4" points="1349.17 673.68 1349.17 722.68 960.17 498.09 571.17 722.68 571.17 673.68 960.17 449.09 1349.17 673.68"/><polygon class="cls-2" points="1349.17 1066.78 1349.17 1076.22 1280.65 1076.22 960.17 891.19 639.69 1076.22 571.17 1076.22 571.17 1066.78 960.17 842.19 1349.17 1066.78"/><polygon class="cls-3" points="1349.17 989.58 1349.17 1038.58 960.17 813.99 571.17 1038.58 571.17 989.58 960.17 764.99 1349.17 989.58"/><polygon class="cls-4" points="1349.17 911.58 1349.17 960.58 960.17 735.99 571.17 960.58 571.17 911.58 960.17 686.99 1349.17 911.58"/><polygon class="cls-3" points="1073.15 1077.22 988.28 1077.22 960.17 1060.99 932.06 1077.22 847.19 1077.22 960.17 1011.99 1073.15 1077.22"/><polygon class="cls-4" points="1209.98 1077.22 1125.11 1077.22 960.17 981.99 795.23 1077.22 710.36 1077.22 960.17 932.99 1209.98 1077.22"/><polygon class="cls-2" points="1920.17 711.03 1738.17 605.95 1349.17 830.54 1349.17 876.87 1349.17 879.54 1738.17 654.95 1920.17 760.03 1920.17 711.03"/><polygon class="cls-3" points="1920.17 633.83 1920.17 682.83 1738.17 577.75 1349.17 802.34 1349.17 753.34 1738.17 528.75 1920.17 633.83"/><polygon class="cls-4" points="1920.17 554.83 1920.17 603.83 1738.17 498.75 1349.17 723.34 1349.17 674.34 1738.17 449.75 1920.17 554.83"/><polygon class="cls-2" points="1920.17 947.93 1920.17 996.93 1738.17 891.85 1417.69 1076.88 1349.17 1076.88 1349.17 1067.44 1738.17 842.85 1920.17 947.93"/><polygon class="cls-3" points="1920.17 870.73 1920.17 919.73 1738.17 814.65 1349.17 1039.24 1349.17 990.24 1738.17 765.65 1920.17 870.73"/><polygon class="cls-4" points="1920.17 791.73 1920.17 840.73 1738.17 735.65 1349.17 960.24 1349.17 911.24 1738.17 686.65 1920.17 791.73"/><polygon class="cls-3" points="1851.15 1076.88 1766.28 1076.88 1738.17 1060.65 1710.06 1076.88 1625.19 1076.88 1738.17 1011.65 1851.15 1076.88"/><polygon class="cls-4" points="1920.17 1076.88 1903.11 1076.88 1738.17 981.65 1573.23 1076.88 1488.36 1076.88 1738.17 932.65 1920.17 1037.73 1920.17 1076.88"/><line class="cls-5" x1="0.17" y1="1076.42" x2="0.17" y2="1037.27"/><line class="cls-6" x1="1920.17" y1="1081.88" x2="1920.17" y2="1042.73"/><line class="cls-6" x1="1920.17" y1="765.03" x2="1920.17" y2="716.03"/></g></g></g></svg>