<svg xmlns="http://www.w3.org/2000/svg" viewBox="0 0 50.24 48.91"><defs><style>.cls-1{fill:#dcc9b6;}</style></defs><g id="Layer_2" data-name="Layer 2"><g id="github_black"><path class="cls-1" d="M50.24,25.12A25.12,25.12,0,1,0,17,48.88,2.4,2.4,0,0,0,18.24,47c0-1.38,0-4.93,0-4.93a18,18,0,0,1-2.65.18,5.69,5.69,0,0,1-5.75-3.88A6.82,6.82,0,0,0,7,35c-.65-.42-.8-.91,0-1.05,3.47-.65,4.36,3.92,6.68,4.64a6.52,6.52,0,0,0,4.84-.38,5,5,0,0,1,2-3.24c-5.89-.56-9.39-2.6-11.2-5.87l-.2-.37-.45-1-.14-.37a17.8,17.8,0,0,1-.82-5.69c0-3.77,1.19-5.2,2.77-7.21a10.07,10.07,0,0,1,.44-7.24s2.55-.53,7.38,2.91C20.84,9,27.81,8.91,31.11,9.87c2-1.33,5.73-3.22,7.22-2.69.4.65,1.28,2.54.53,6.68.51.91,3.14,2.85,3.15,8.33a21.56,21.56,0,0,1-.64,5.17l-.22.74-.26.68-.16.36C39,33,35.39,34.39,29.59,35,31.47,36.16,32,37.63,32,41.63s0,4.52,0,5.44a2.54,2.54,0,0,0,1.24,1.84A25.13,25.13,0,0,0,50.24,25.12Z"/></g></g></svg>