<svg xmlns="http://www.w3.org/2000/svg" viewBox="0 0 44.18 44.18"><defs><style>.cls-1{fill:#dcc9b6;}</style></defs><g id="Layer_2" data-name="Layer 2"><g id="Isolation_Mode" data-name="Isolation Mode"><path class="cls-1" d="M22.09,4c5.9,0,6.6,0,8.93.13a12.36,12.36,0,0,1,4.1.76,6.85,6.85,0,0,1,2.54,1.65,6.93,6.93,0,0,1,1.65,2.54,12.1,12.1,0,0,1,.76,4.1c.11,2.33.13,3,.13,8.93s0,6.6-.13,8.93a12.1,12.1,0,0,1-.76,4.1,7.29,7.29,0,0,1-4.19,4.19,11.85,11.85,0,0,1-4.1.76c-2.33.11-3,.13-8.93.13s-6.6,0-8.93-.13a11.85,11.85,0,0,1-4.1-.76,6.93,6.93,0,0,1-2.54-1.65,6.85,6.85,0,0,1-1.65-2.54A12.36,12.36,0,0,1,4.11,31C4,28.69,4,28,4,22.09s0-6.6.13-8.93a12.36,12.36,0,0,1,.76-4.1A7.29,7.29,0,0,1,9.06,4.87a12.36,12.36,0,0,1,4.1-.76C15.49,4,16.19,4,22.09,4m0-4c-6,0-6.75,0-9.11.13a16.19,16.19,0,0,0-5.36,1A10.78,10.78,0,0,0,3.71,3.71,10.78,10.78,0,0,0,1.16,7.62,16.19,16.19,0,0,0,.13,13C0,15.34,0,16.09,0,22.09s0,6.75.13,9.11a16.14,16.14,0,0,0,1,5.36,10.7,10.7,0,0,0,2.55,3.91A10.78,10.78,0,0,0,7.62,43a16.19,16.19,0,0,0,5.36,1c2.36.11,3.11.13,9.11.13s6.75,0,9.11-.13a16.14,16.14,0,0,0,5.36-1A11.33,11.33,0,0,0,43,36.56a16.14,16.14,0,0,0,1-5.36c.11-2.36.13-3.11.13-9.11s0-6.75-.13-9.11a16.19,16.19,0,0,0-1-5.36,10.78,10.78,0,0,0-2.55-3.91,10.7,10.7,0,0,0-3.91-2.55,16.14,16.14,0,0,0-5.36-1C28.84,0,28.09,0,22.09,0"/><path class="cls-1" d="M22.09,10.75A11.35,11.35,0,1,0,33.44,22.09,11.34,11.34,0,0,0,22.09,10.75m0,18.71a7.37,7.37,0,1,1,7.36-7.37,7.36,7.36,0,0,1-7.36,7.37"/><path class="cls-1" d="M36.53,10.3a2.65,2.65,0,1,1-2.65-2.65,2.65,2.65,0,0,1,2.65,2.65"/></g></g></svg>