<svg xmlns="http://www.w3.org/2000/svg" viewBox="0 0 778 1374.2"><defs><style>.cls-1{fill:#727d71;}.cls-2,.cls-3,.cls-4{fill:#15202b;}.cls-2{opacity:0.1;}.cls-3{opacity:0.5;}.cls-4{opacity:0.2;}</style></defs><g id="Layer_2" data-name="Layer 2"><g id="Layer_1-2" data-name="Layer 1"><g id="BakgrundMobil"><rect class="cls-1" x="0.16" width="777.54" height="1374.2"/><polygon class="cls-2" points="778 1127.86 778 1176.86 389 952.27 0 1176.86 0 1127.86 389 903.27 778 1127.86"/><polygon class="cls-3" points="778 1050.66 778 1099.66 389 875.07 0 1099.66 0 1050.66 389 826.07 778 1050.66"/><polygon class="cls-4" points="778 971.66 778 1020.66 389 796.07 0 1020.66 0 971.66 389 747.07 778 971.66"/><polygon class="cls-2" points="778 1364.76 778 1374.2 709.48 1374.2 389 1189.17 68.52 1374.2 0 1374.2 0 1364.76 389 1140.17 778 1364.76"/><polygon class="cls-3" points="778 1287.56 778 1336.56 389 1111.97 0 1336.56 0 1287.56 389 1062.97 778 1287.56"/><polygon class="cls-4" points="778 1208.56 778 1257.56 389 1032.97 0 1257.56 0 1208.56 389 983.97 778 1208.56"/><polygon class="cls-3" points="501.98 1374.2 417.11 1374.2 389 1357.97 360.89 1374.2 276.02 1374.2 389 1308.97 501.98 1374.2"/><polygon class="cls-4" points="638.81 1374.2 553.94 1374.2 389 1278.97 224.06 1374.2 139.19 1374.2 389 1229.97 638.81 1374.2"/></g></g></g></svg>